<?xml version="1.0" ?><svg enable-background="new 0 0 64 64" height="64px" version="1.1" viewBox="0 0 64 64" width="64px" xml:space="preserve" xmlns="http://www.w3.org/2000/svg" xmlns:xlink="http://www.w3.org/1999/xlink"><g id="Layer_1"><g><circle cx="32" cy="32" fill="#4F5D73" r="32"/></g><g><circle cx="32" cy="32" fill="#77B3D4" r="22"/></g><g opacity="0.2"><path d="M32,16c9.925,0,18,8.075,18,18s-8.075,18-18,18s-18-8.075-18-18S22.075,16,32,16z M32,12    c-12.15,0-22,9.85-22,22s9.85,22,22,22s22-9.85,22-22S44.15,12,32,12L32,12z" fill="#231F20"/></g><g><path d="M32,14c9.925,0,18,8.075,18,18s-8.075,18-18,18s-18-8.075-18-18S22.075,14,32,14 M32,10    c-12.15,0-22,9.85-22,22s9.85,22,22,22s22-9.85,22-22S44.15,10,32,10L32,10z" fill="#FFFFFF"/></g><g opacity="0.2"><g><path d="M41.81,25.913l-2.905,4.655l-1.937,3.105c0.007,0.11-5.185,5.302-5.295,5.295l-3.108,1.937l-4.653,2.905     C23.71,43.938,23.48,44,23.25,44c-0.323,0-0.642-0.125-0.885-0.365c-0.413-0.413-0.485-1.053-0.175-1.545l2.905-4.655     l1.938-3.105c-0.007-0.113,5.185-5.305,5.295-5.298l3.107-1.938l4.653-2.905c0.485-0.307,1.133-0.235,1.545,0.177     C42.048,24.778,42.12,25.417,41.81,25.913z M29.5,34c0,1.381,1.119,2.5,2.5,2.5c1.381,0,2.5-1.119,2.5-2.5     c0-1.381-1.119-2.5-2.5-2.5C30.619,31.5,29.5,32.619,29.5,34z" fill="#231F20"/></g></g><g><g><path d="M41.81,23.913l-2.905,4.655l-1.937,3.105c0.007,0.11-5.185,5.302-5.295,5.295l-3.108,1.937l-4.653,2.905     C23.71,41.938,23.48,42,23.25,42c-0.323,0-0.642-0.125-0.885-0.365c-0.413-0.413-0.485-1.053-0.175-1.545l2.905-4.655     l1.938-3.105c-0.007-0.113,5.185-5.305,5.295-5.298l3.107-1.938l4.653-2.905c0.485-0.307,1.133-0.235,1.545,0.177     C42.048,22.778,42.12,23.417,41.81,23.913z M29.5,32c0,1.381,1.119,2.5,2.5,2.5c1.381,0,2.5-1.119,2.5-2.5     c0-1.381-1.119-2.5-2.5-2.5C30.619,29.5,29.5,30.619,29.5,32z" fill="#C75C5C"/></g></g><g opacity="0.2"><circle cx="32" cy="34" fill="#231F20" r="5"/></g><g><circle cx="32" cy="32" fill="#FFFFFF" r="5"/></g></g><g id="Layer_2"/></svg>